<?xml version="1.0" encoding="utf-8" standalone="no"?>
<!DOCTYPE svg PUBLIC "-//W3C//DTD SVG 1.1//EN"
  "http://www.w3.org/Graphics/SVG/1.1/DTD/svg11.dtd">
<svg xmlns:xlink="http://www.w3.org/1999/xlink" width="48pt" height="48pt" viewBox="0 0 48 48" xmlns="http://www.w3.org/2000/svg" version="1.1">
 <metadata>
  <rdf:RDF xmlns:dc="http://purl.org/dc/elements/1.1/" xmlns:cc="http://creativecommons.org/ns#" xmlns:rdf="http://www.w3.org/1999/02/22-rdf-syntax-ns#">
   <cc:Work>
    <dc:type rdf:resource="http://purl.org/dc/dcmitype/StillImage"/>
    <dc:format>image/svg+xml</dc:format>
    <dc:creator>
     <cc:Agent>
      <dc:title>RC MetaStudio icon generator</dc:title>
     </cc:Agent>
    </dc:creator>
   </cc:Work>
  </rdf:RDF>
 </metadata>
 <defs>
  <style type="text/css">*{stroke-linejoin: round; stroke-linecap: butt}</style>
 </defs>
 <g id="figure_1">
  <g id="patch_1">
   <path d="M 0 48
L 48 48
L 48 0
L 0 0
L 0 48
z
" style="fill: none"/>
  </g>
  <g id="axes_1">
   <g id="text_1">
    <!-- $\mu$ -->
    <g style="fill: #243746" transform="translate(14.99 29.472031) scale(0.34 -0.34)">
     <defs>
      <path id="STIXGeneral-Italic-20b" d="M 3002 749
L 3091 691
Q 2797 237 2614 83
Q 2432 -70 2214 -70
Q 2080 -70 1990 6
Q 1901 83 1901 218
Q 1901 416 1997 704
L 2208 1370
L 2202 1370
Q 1766 595 1475 268
Q 1184 -58 902 -58
Q 723 -58 672 122
Q 614 -109 547 -374
Q 480 -640 451 -758
Q 422 -877 384 -1005
Q 346 -1133 314 -1197
Q 282 -1261 243 -1312
L -211 -1312
Q -58 -1088 70 -595
L 909 2739
L 1389 2739
L 909 832
Q 883 717 883 659
Q 883 352 1139 352
Q 1395 352 1811 969
Q 2227 1587 2323 1958
L 2534 2739
L 3027 2739
L 2522 819
Q 2400 333 2400 326
Q 2400 230 2470 230
Q 2547 230 2652 329
Q 2758 429 3002 749
z
" transform="scale(0.015625)"/>
     </defs>
     <use xlink:href="#STIXGeneral-Italic-20b" transform="translate(0 0.203125)"/>
    </g>
   </g>
  </g>
 </g>
</svg>
